<svg width="630" height="240" xmlns="http://www.w3.org/2000/svg">
 <g>
  <circle fill="#ffffff" stroke="#000000" stroke-width="31" cx="226.16667" cy="157.5" r="59.9998" fill-opacity="0" id="svg_2"/>
  <path fill="#ffffff" fill-opacity="0" stroke="#000000" stroke-width="31" stroke-linejoin="null" stroke-linecap="null" d="m286.66742,96.99978l32.5,0c33.14917,0 60,26.85104 60,60.00051c0,33.14923 -26.85083,60.00014 -60,60.00014l-32.5,0l0,-120.00065z" id="svg_4"/>
  <path fill="#000000" stroke="#000000" stroke-width="0" stroke-linejoin="null" stroke-linecap="null" d="m12.29203,5.49987l36.78982,0c-18.39493,17.44909 -16.61479,47.39016 -1.18675,61.27014c1.08783,1.0906 3.65919,4.11443 8.67823,7.28702c5.01907,3.17255 17.82602,8.27841 23.36412,8.17928l34.41508,0c6.82365,0.09914 19.87772,4.21352 28.70415,9.22027c8.82643,5.00672 16.98517,12.09541 24.69896,21.71223c15.62546,22.40674 21.16356,60.87421 -1.18672,88.63425c-13.25185,18.83723 -27.09717,24.58746 -45.09608,29.74287c-19.77882,3.17267 -35.99741,0.39661 -52.216,-8.32791c-25.51546,-11.6989 -52.81113,-57.30472 -30.26255,-97.55698l35.60287,0c-14.83442,15.06998 -19.58149,42.03677 -1.18674,61.27061c11.47173,14.47478 41.33768,24.19086 64.67686,1.18965c15.42752,-13.87997 17.80092,-44.41603 0,-61.86539c-7.71393,-8.12991 -20.17464,-13.88026 -33.82191,-13.68196c-12.46067,-0.19829 -24.92134,-0.39659 -37.38207,-0.59488c-11.07642,-0.99142 -25.26821,-7.78272 -33.89701,-15.68932c-9.22221,-7.31176 -16.44168,-16.9286 -21.88102,-29.51974c-9.09851,-22.80283 -8.10954,-40.84681 1.18676,-61.27014l-0.00001,-0.00001l0.00001,0.00001z" id="svg_2"/>
  <path id="svg_9" d="m426.08487,231.92857l-24.89441,-0.5585l0,-149.68162l25.93167,-1.11703l21.78259,43.56405l23.85718,-40.21297l23.85712,0l-2.07452,146.33054l-23.85715,-1.11703l4.14908,-97.18137l-28.00623,34.62785l-25.93167,-48.03217l5.18634,113.37823z" stroke-linecap="null" stroke-linejoin="null" stroke-width="2" stroke="#000000" fill="#000000"/>
  <path id="svg_10" d="m509.20837,230.49998l-1.375,-147.7857l22,0l-1.375,145.44317l-19.25,2.34253z" stroke-linecap="null" stroke-linejoin="null" stroke-width="2" stroke="#000000" fill="#000000"/>
  <path id="svg_11" d="m539.33337,230.5l3.2818,-147.86613l21.87897,1.15074l30.63062,111.61877l3.2099,-111.91363l20.71301,2.30141l-5.32581,139.53064l-29.09058,-0.29483l-24.44092,-92.9126l-1.16595,95.50883l-19.69104,2.87679z" stroke-linecap="null" stroke-linejoin="null" stroke-width="2" stroke="#000000" fill="#000000"/>
 </g>
</svg>
